<?xml version="1.0" standalone="no"?>
<!DOCTYPE svg PUBLIC "-//W3C//DTD SVG 20010904//EN"
 "http://www.w3.org/TR/2001/REC-SVG-20010904/DTD/svg10.dtd">
<svg version="1.0" xmlns="http://www.w3.org/2000/svg"
 width="260.000000pt" height="260.000000pt" viewBox="0 0 260.000000 260.000000"
 preserveAspectRatio="xMidYMid meet">
<metadata>
Created by potrace 1.14, written by Peter Selinger 2001-2017
</metadata>
<g transform="translate(0.000000,260.000000) scale(0.100000,-0.100000)"
fill="#000000" stroke="none">
<path d="M1067 2509 c-49 -10 -128 -32 -176 -49 -460 -158 -789 -592 -817
-1081 -5 -98 -4 -106 18 -139 31 -45 64 -62 113 -57 52 5 915 497 983 560 49
46 92 125 92 172 0 119 -98 225 -257 281 -29 10 -53 21 -53 24 0 5 79 28 160
46 58 13 260 12 336 -3 326 -61 594 -272 722 -568 42 -99 43 -100 67 -225 17
-82 17 -271 1 -340 -4 -14 -8 -36 -11 -50 -15 -85 -81 -231 -144 -323 -103
-148 -262 -280 -420 -347 -123 -53 -212 -71 -371 -77 l-145 -5 38 22 c21 11
100 55 175 97 222 122 245 135 282 156 19 11 60 34 90 50 136 75 150 88 157
150 9 77 -55 142 -132 134 -35 -4 -387 -193 -960 -517 -22 -12 -76 -42 -121
-66 -110 -60 -129 -82 -129 -150 0 -47 4 -57 33 -86 l32 -33 378 -2 c419 -3
500 4 663 56 189 61 347 158 489 300 170 171 266 341 326 579 24 92 28 128 28
257 1 175 -5 235 -35 347 -40 150 -142 352 -227 451 -112 129 -199 205 -325
280 -124 76 -237 120 -387 153 -112 25 -360 26 -473 3z m-283 -499 c107 -28
226 -75 226 -90 0 -7 -653 -380 -657 -376 -6 6 39 129 69 189 46 92 91 157
162 234 75 80 65 78 200 43z"/>
<path d="M1249 1663 c-59 -25 -232 -187 -330 -309 -36 -46 -90 -143 -110 -199
-47 -132 -16 -290 65 -329 48 -23 76 -17 169 34 174 94 319 127 421 95 84 -27
113 -25 155 11 55 46 59 128 10 180 -74 79 -311 93 -488 30 -24 -9 -45 -16
-48 -16 -2 0 16 26 40 58 47 60 142 154 216 212 23 19 49 47 57 62 31 61 3
144 -58 169 -43 18 -61 18 -99 2z"/>
</g>
</svg>
