<svg id="Layer_1" data-name="Layer 1" xmlns="http://www.w3.org/2000/svg" viewBox="0 0 24 24"><defs><style>.cls-1{fill:none;stroke:#000;stroke-linecap:round;stroke-linejoin:round;stroke-width:1.5px;}</style></defs><path class="cls-1" d="M2,10.82v-7A1.77,1.77,0,0,1,3.77,2H20.23A1.77,1.77,0,0,1,22,3.77V20.23A1.77,1.77,0,0,1,20.23,22h-7"/><circle class="cls-1" cx="2.59" cy="21.41" r="0.29"/><path class="cls-1" d="M2,17.93a3.81,3.81,0,0,1,.59-.05,3.53,3.53,0,0,1,3.53,3.53,3.81,3.81,0,0,1,0,.59"/><path class="cls-1" d="M2,14.38a5.83,5.83,0,0,1,.59,0,7.06,7.06,0,0,1,7.06,7.06,5.83,5.83,0,0,1,0,.59"/></svg>