<svg id="Layer_1" data-name="Layer 1" xmlns="http://www.w3.org/2000/svg" viewBox="0 0 24 24"><defs><style>.cls-1{fill:none;stroke:#000;stroke-linecap:round;stroke-linejoin:round;stroke-width:2px;}</style></defs><path class="cls-1" d="M3.5,11V5A1.5,1.5,0,0,1,5,3.5H19A1.5,1.5,0,0,1,20.5,5V19A1.5,1.5,0,0,1,19,20.5H13"/><circle class="cls-1" cx="4" cy="20" r="0.25"/><path class="cls-1" d="M3.5,17A2.74,2.74,0,0,1,4,17a3,3,0,0,1,3,3,2.74,2.74,0,0,1,0,.5"/><path class="cls-1" d="M3.5,14,4,14a6,6,0,0,1,6,6c0,.17,0,.33,0,.5"/></svg>