<svg id="Layer_1" data-name="Layer 1" xmlns="http://www.w3.org/2000/svg" viewBox="0 0 24 24"><defs><style>.cls-1{fill:none;stroke:#000;stroke-linecap:round;stroke-linejoin:round;stroke-width:2px;}</style></defs><path class="cls-1" d="M19,10.5a2.35,2.35,0,0,1,.06-.54A3.5,3.5,0,0,1,16,6.5a3.66,3.66,0,0,1,.05-.57A2.43,2.43,0,0,1,15.5,6,2.49,2.49,0,0,1,13,3.57a8.5,8.5,0,1,0,7.45,9.2A2.5,2.5,0,0,1,19,10.5Z"/><circle class="cls-1" cx="9.5" cy="8.5" r="0.25"/><circle class="cls-1" cx="8.5" cy="15.5" r="0.25"/><circle class="cls-1" cx="14.5" cy="13.5" r="0.25"/></svg>