<?xml version="1.0" encoding="UTF-8"?><svg id="a" xmlns="http://www.w3.org/2000/svg" viewBox="0 0 24 24"><defs><style>.b{fill:none;stroke:#000;stroke-linecap:round;stroke-linejoin:round;stroke-width:1.5px;}</style></defs><path class="b" d="M13.82,18.29c-.59,.12-1.2,.18-1.82,.18-5.52,0-10-5.18-10-6.47,0-.61,1-2.1,2.65-3.49m14.31,7.3c1.88-1.48,3.04-3.15,3.04-3.81,0-1.29-4.48-6.47-10-6.47-.53,0-1.04,.05-1.55,.13m1.55,3.4c-1.62,0-2.94,1.32-2.94,2.94s1.32,2.94,2.94,2.94,2.94-1.32,2.94-2.94-1.32-2.94-2.94-2.94ZM4.65,3.67l14.71,16.67"/></svg>