<svg id="Layer_1" data-name="Layer 1" xmlns="http://www.w3.org/2000/svg" viewBox="0 0 24 24"><defs><style>.cls-1{fill:none;stroke:#000;stroke-linecap:round;stroke-linejoin:round;stroke-width:2px;}</style></defs><path class="cls-1" d="M13.52,20.48v-7.1c0-.15,0-.19.19-.18h2.14c.06,0,.15.05.16-.08.07-.46.15-.92.21-1.38l.24-1.51c0-.19,0-.16-.14-.16h-2.6c-.15,0-.2,0-.2-.19q0-1,0-2A1.46,1.46,0,0,1,15,6.42h1.43c.09,0,.15,0,.14-.12V3.84c0-.1,0-.11-.11-.13a14.68,14.68,0,0,0-1.86-.2,5.28,5.28,0,0,0-2.29.33,3.45,3.45,0,0,0-1.92,2A6.13,6.13,0,0,0,10.1,8c0,.64,0,1.28,0,1.91,0,.15,0,.19-.19.19H7.57c-.14,0-.19,0-.18.19V13c0,.14,0,.19.18.18H9.89c.16,0,.21,0,.21.2,0,1.93,0,3.85,0,5.77,0,.44,0,.89,0,1.33Z"/></svg>