<?xml version="1.0" encoding="UTF-8"?><svg id="a" xmlns="http://www.w3.org/2000/svg" viewBox="0 0 24 24"><defs><style>.b{fill:none;stroke:#000;stroke-linecap:round;stroke-linejoin:round;stroke-width:1.5px;}</style></defs><path class="b" d="M22,12c0,5.52-4.48,10-10,10S2,17.52,2,12,6.48,2,12,2s10,4.48,10,10Zm-13.89-3.33c-.31,0-.56,.25-.56,.56s.25,.56,.56,.56,.56-.25,.56-.56-.25-.56-.56-.56Zm7.78,0c-.31,0-.56,.25-.56,.56s.25,.56,.56,.56,.56-.25,.56-.56-.25-.56-.56-.56Zm0,8.06c-3.89-3.27-7.78,0-7.78,0"/></svg>