<?xml version="1.0" encoding="UTF-8"?><svg id="a" xmlns="http://www.w3.org/2000/svg" viewBox="0 0 24 24"><defs><style>.b{fill:none;stroke:#000;stroke-linecap:round;stroke-linejoin:round;stroke-width:1.5px;}</style></defs><path class="b" d="M18.47,21.93H5.53c-1.12,0-2.03-.91-2.03-2.03v-6.77c0-1.12,.91-2.03,2.03-2.03h12.95c1.12,0,2.03,.91,2.03,2.03v6.77c0,1.12-.91,2.03-2.03,2.03Zm-1.37-11.17c0-3.7-2.26-6.7-5.04-6.7s-5.04,3-5.04,6.7m9.45,4.79c.35,0,.64-.29,.64-.64s-.29-.64-.64-.64-.64,.29-.64,.64,.29,.64,.64,.64Z"/></svg>