<svg id="Layer_1" data-name="Layer 1" xmlns="http://www.w3.org/2000/svg" viewBox="0 0 24 24"><defs><style>.cls-1{fill:none;stroke:#000;stroke-linecap:round;stroke-linejoin:round;stroke-width:2px;}</style></defs><path class="cls-1" d="M18.83,7a1.75,1.75,0,0,1-.33,0A1.5,1.5,0,0,1,17,5.5a1.75,1.75,0,0,1,0-.33A8.47,8.47,0,0,0,8,4.5,1.5,1.5,0,0,1,6.5,6a1.62,1.62,0,0,1-.44-.07,8.5,8.5,0,0,0-2.52,5.25A3.48,3.48,0,0,1,6,14.5a3.44,3.44,0,0,1-1,2.38A8.5,8.5,0,0,0,9.1,20a1.5,1.5,0,0,1,2.9.52,8.49,8.49,0,0,0,6.43-2.95A1.47,1.47,0,0,1,18,16.5,1.5,1.5,0,0,1,19.5,15a1.42,1.42,0,0,1,.42.07A8.5,8.5,0,0,0,20.5,12,8.4,8.4,0,0,0,18.83,7Z"/></svg>