<svg id="Layer_1" data-name="Layer 1" xmlns="http://www.w3.org/2000/svg" viewBox="0 0 24 24"><defs><style>.cls-1{fill:none;stroke:#000;stroke-linecap:round;stroke-linejoin:round;stroke-width:2px;}</style></defs><line class="cls-1" x1="12" y1="20.46" x2="12" y2="12"/><line class="cls-1" x1="12" y1="20.5" x2="12" y2="20.46"/><polyline class="cls-1" points="13.89 19.56 12 17.67 10.11 19.56"/><line class="cls-1" x1="12" y1="3.54" x2="12" y2="12"/><line class="cls-1" x1="12" y1="3.5" x2="12" y2="3.54"/><polyline class="cls-1" points="13.89 4.44 12 6.33 10.11 4.44"/><line class="cls-1" x1="20.46" y1="12" x2="12" y2="12"/><line class="cls-1" x1="20.5" y1="12" x2="20.46" y2="12"/><polyline class="cls-1" points="19.56 10.11 17.67 12 19.56 13.89"/><line class="cls-1" x1="3.54" y1="12" x2="12" y2="12"/><line class="cls-1" x1="3.5" y1="12" x2="3.54" y2="12"/><polyline class="cls-1" points="4.44 10.11 6.33 12 4.44 13.89"/><line class="cls-1" x1="16" y1="16" x2="12" y2="12"/><line class="cls-1" x1="18.01" y1="18.01" x2="17.98" y2="17.98"/><line class="cls-1" x1="8" y1="8" x2="12" y2="12"/><line class="cls-1" x1="5.99" y1="5.99" x2="6.02" y2="6.02"/><line class="cls-1" x1="16" y1="8" x2="12" y2="12"/><line class="cls-1" x1="18.01" y1="5.99" x2="17.98" y2="6.02"/><line class="cls-1" x1="8" y1="16" x2="12" y2="12"/><line class="cls-1" x1="5.99" y1="18.01" x2="6.02" y2="17.98"/></svg>