<?xml version="1.0" encoding="UTF-8"?><svg id="a" xmlns="http://www.w3.org/2000/svg" viewBox="0 0 24 24"><defs><style>.b{fill:none;stroke:#000;stroke-linecap:round;stroke-linejoin:round;stroke-width:1.5px;}</style></defs><path class="b" d="M18.34,22H5.66c-1.1,0-1.98-.89-1.98-1.98v-6.63c0-1.1,.89-1.98,1.98-1.98h12.68c1.1,0,1.98,.89,1.98,1.98v6.63c0,1.1-.89,1.98-1.98,1.98Zm-.33-16.66c-1.5-2.99-5.14-4.2-8.13-2.7-2.99,1.5-4.2,5.14-2.7,8.13m9.19,4.98c.35,0,.62-.28,.62-.62s-.28-.62-.62-.62-.62,.28-.62,.62,.28,.62,.62,.62Z"/></svg>