<svg xmlns="http://www.w3.org/2000/svg" width="24" height="24" viewBox="0 0 24 24" stroke="currentColor" fill="none" stroke-linecap="round" stroke-width="1.5" stroke-linejoin="round" stroke-align="center" ><path  d="M9.76,22c-.01-.52,0-1.04,0-1.57,0-2.26,0-4.52,0-6.78,0-.2-.05-.25-.25-.24-.91,0-1.82,0-2.73,0-.18,0-.22-.05-.22-.22,0-1.08,0-2.17,0-3.25,0-.18,.05-.22,.22-.22,.92,0,1.83,0,2.75,0,.18,0,.22-.05,.22-.22,0-.75-.01-1.5,0-2.25,.01-.86,.07-1.72,.4-2.54,.43-1.09,1.17-1.86,2.26-2.32,.87-.36,1.77-.44,2.69-.39,.73,.04,1.46,.08,2.18,.24,.1,.02,.14,.04,.14,.14,0,.97,0,1.93,0,2.9,0,.14-.06,.14-.17,.14-.56,0-1.13,0-1.69,0-1.03,.01-1.79,.72-1.78,1.77,0,.77,0,1.53,0,2.3,0,.2,.06,.23,.24,.23,1.02,0,2.04,0,3.05,0,.14,0,.2-.03,.17,.19-.09,.59-.19,1.18-.27,1.77-.08,.54-.17,1.08-.25,1.63-.02,.15-.12,.09-.19,.09-.84,0-1.68,0-2.52,0-.17,0-.22,.03-.22,.22,0,2.78,0,5.57,0,8.35l-4.03,.03Z"/></svg>