<svg xmlns="http://www.w3.org/2000/svg" width="24" height="24" viewBox="0 0 24 24" stroke="currentColor" fill="none" stroke-linecap="round" stroke-width="1.5" stroke-linejoin="round" stroke-align="center" ><path  d="M21,20.88H3a1,1,0,0,1-1-1V15.21a1,1,0,0,1,1-1H21a1,1,0,0,1,1,1v4.67A1,1,0,0,1,21,20.88ZM6.67,17.21a.34.34,0,1,0,.33.33A.34.34,0,0,0,6.67,17.21Z"/><path  d="M21,9.79H3a1,1,0,0,1-1-1V4.12a1,1,0,0,1,1-1H21a1,1,0,0,1,1,1V8.79A1,1,0,0,1,21,9.79ZM17.17,6.12a.34.34,0,1,0,.33.34A.34.34,0,0,0,17.17,6.12Z"/></svg>