<svg xmlns="http://www.w3.org/2000/svg" width="24" height="24" viewBox="0 0 24 24" stroke="currentColor" fill="none" stroke-linecap="round" stroke-width="1.5" stroke-linejoin="round" stroke-align="center" ><path  d="M12.91,2.91c0,.5-.41,.91-.91,.91s-.91-.41-.91-.91,.41-.91,.91-.91,.91,.41,.91,.91Zm8.18,8.18c-.5,0-.91,.41-.91,.91s.41,.91,.91,.91,.91-.41,.91-.91-.41-.91-.91-.91Zm-9.09,9.09c-.5,0-.91,.41-.91,.91s.41,.91,.91,.91,.91-.41,.91-.91-.41-.91-.91-.91ZM2.91,11.09c-.5,0-.91,.41-.91,.91s.41,.91,.91,.91,.91-.41,.91-.91-.41-.91-.91-.91Z"/></svg>