<svg xmlns="http://www.w3.org/2000/svg" width="24" height="24" viewBox="0 0 24 24" stroke="currentColor" fill="none" stroke-linecap="round" stroke-width="1.5" stroke-linejoin="round" stroke-align="center" ><path  d="M9.29,22l-2.5-1.25-2.29,1.25V9.5c0-4.14,3.36-7.5,7.5-7.5s7.5,3.36,7.5,7.5v12.5l-2.29-1.25-2.5,1.25-2.71-1.3-2.71,1.3ZM14.33,7.72c-.16,0-.29,.13-.29,.29s.13,.29,.29,.29,.29-.13,.29-.29-.13-.29-.29-.29Zm-4.71,0c-.16,0-.29,.13-.29,.29s.13,.29,.29,.29,.29-.13,.29-.29-.13-.29-.29-.29Z"/></svg>