<svg xmlns="http://www.w3.org/2000/svg" width="24" height="24" viewBox="0 0 24 24" stroke="currentColor" fill="none" stroke-linecap="round" stroke-width="1.5" stroke-linejoin="round" stroke-align="center" ><path  d="M15.33,12c0,1.84-1.49,3.33-3.33,3.33s-3.33-1.49-3.33-3.33,1.49-3.33,3.33-3.33,3.33,1.49,3.33,3.33ZM10.61,3.05l-.45,1.55c-.26,.89-1.28,1.32-2.09,.87l-1.41-.78c-1.27-.7-2.67,.7-1.97,1.97l.78,1.41c.45,.81,.03,1.84-.87,2.09l-1.55,.45c-1.4,.4-1.4,2.38,0,2.79l1.55,.45c.89,.26,1.32,1.28,.87,2.09l-.78,1.41c-.7,1.27,.7,2.67,1.97,1.97l1.41-.78c.81-.45,1.84-.03,2.09,.87l.45,1.55c.4,1.4,2.38,1.4,2.79,0l.45-1.55c.26-.89,1.28-1.32,2.09-.87l1.41,.78c1.27,.7,2.67-.7,1.97-1.97l-.78-1.41c-.45-.81-.03-1.84,.87-2.09l1.55-.45c1.4-.4,1.4-2.38,0-2.79l-1.55-.45c-.89-.26-1.32-1.28-.87-2.09l.78-1.41c.7-1.27-.7-2.67-1.97-1.97l-1.41,.78c-.81,.45-1.84,.03-2.09-.87l-.45-1.55c-.4-1.4-2.38-1.4-2.79,0Z"/></svg>